<?xml version="1.0" encoding="utf-8"?>
<!-- Generator: Adobe Illustrator 17.0.0, SVG Export Plug-In . SVG Version: 6.00 Build 0)  -->
<!DOCTYPE svg PUBLIC "-//W3C//DTD SVG 1.1//EN" "http://www.w3.org/Graphics/SVG/1.1/DTD/svg11.dtd">
<svg version="1.1" id="Layer_1" xmlns="http://www.w3.org/2000/svg" xmlns:xlink="http://www.w3.org/1999/xlink" x="0px" y="0px"
	 width="408.093px" height="63.097px" viewBox="0 0 408.093 63.097" enable-background="new 0 0 408.093 63.097"
	 xml:space="preserve">
<g>
	<path fill="#FFFFFF" d="M223.799,2.127c-0.005-0.013-0.013-0.023-0.019-0.036c-0.047-0.113-0.11-0.218-0.17-0.325
		c-0.041-0.072-0.074-0.15-0.119-0.218c-0.063-0.094-0.141-0.176-0.214-0.263c-0.057-0.067-0.107-0.142-0.169-0.204
		c-0.075-0.075-0.163-0.137-0.246-0.204c-0.074-0.06-0.142-0.126-0.22-0.179c-0.076-0.051-0.162-0.088-0.243-0.133
		c-0.099-0.055-0.196-0.113-0.301-0.157c-0.013-0.005-0.024-0.014-0.037-0.019c-0.076-0.031-0.155-0.042-0.232-0.067
		c-0.106-0.033-0.21-0.07-0.32-0.092c-0.101-0.02-0.201-0.026-0.303-0.036c-0.101-0.01-0.201-0.024-0.303-0.024
		c-0.105,0-0.207,0.014-0.311,0.025c-0.099,0.01-0.197,0.015-0.295,0.035c-0.111,0.022-0.217,0.059-0.325,0.093
		c-0.076,0.024-0.152,0.035-0.227,0.065c-0.013,0.005-0.024,0.014-0.036,0.019c-0.107,0.044-0.205,0.104-0.306,0.16
		c-0.079,0.044-0.163,0.08-0.237,0.13c-0.079,0.053-0.147,0.119-0.221,0.179c-0.083,0.068-0.172,0.13-0.247,0.205
		c-0.057,0.057-0.103,0.126-0.156,0.188c-0.078,0.092-0.16,0.18-0.227,0.28c-0.042,0.062-0.072,0.133-0.109,0.199
		c-0.064,0.113-0.13,0.225-0.18,0.344c-0.005,0.012-0.013,0.021-0.017,0.033l-11.337,28.346c-0.64,1.599,0.138,3.414,1.737,4.053
		c0.38,0.152,0.771,0.224,1.157,0.224c1.237,0,2.408-0.742,2.896-1.961l8.443-21.106l19.782,49.455
		c0.488,1.219,1.659,1.961,2.896,1.961c0.386,0,0.777-0.072,1.157-0.224c1.599-0.64,2.377-2.455,1.737-4.054L223.799,2.127z"/>
	<path fill="#FFFFFF" d="M265.694,2.127c-0.005-0.013-0.013-0.023-0.019-0.036c-0.047-0.112-0.109-0.217-0.169-0.323
		c-0.041-0.073-0.074-0.151-0.12-0.22c-0.061-0.092-0.138-0.173-0.209-0.258c-0.058-0.07-0.11-0.146-0.174-0.209
		c-0.072-0.072-0.158-0.131-0.237-0.197c-0.076-0.062-0.148-0.131-0.23-0.186c-0.073-0.049-0.157-0.085-0.236-0.129
		c-0.102-0.056-0.201-0.116-0.308-0.161c-0.013-0.005-0.023-0.014-0.036-0.019c-0.075-0.03-0.153-0.042-0.229-0.066
		c-0.107-0.034-0.212-0.071-0.323-0.093c-0.101-0.02-0.201-0.026-0.302-0.035c-0.101-0.01-0.201-0.024-0.304-0.024
		c-0.105,0-0.207,0.014-0.311,0.025c-0.099,0.01-0.197,0.015-0.296,0.035c-0.11,0.022-0.215,0.059-0.322,0.092
		c-0.077,0.024-0.155,0.036-0.23,0.066c-0.013,0.005-0.024,0.014-0.037,0.019c-0.104,0.043-0.2,0.102-0.299,0.156
		c-0.082,0.045-0.168,0.083-0.244,0.134c-0.075,0.05-0.14,0.114-0.211,0.171c-0.087,0.07-0.179,0.135-0.257,0.213
		c-0.055,0.055-0.099,0.121-0.15,0.181c-0.081,0.094-0.165,0.185-0.233,0.287c-0.041,0.061-0.071,0.132-0.108,0.197
		c-0.065,0.113-0.131,0.226-0.181,0.346c-0.005,0.012-0.013,0.021-0.017,0.033l-11.338,28.345c-0.64,1.599,0.139,3.414,1.737,4.053
		c0.38,0.152,0.771,0.224,1.157,0.224c1.237,0,2.408-0.742,2.896-1.961l8.443-21.107l19.782,49.455
		c0.488,1.219,1.659,1.961,2.896,1.961c0.386,0,0.777-0.072,1.157-0.224c1.599-0.64,2.376-2.454,1.737-4.054L265.694,2.127z"/>
	<path fill="#FFFFFF" d="M181.823,2.127c-0.005-0.012-0.012-0.021-0.017-0.032c-0.05-0.121-0.116-0.233-0.181-0.347
		c-0.037-0.065-0.067-0.136-0.108-0.198c-0.064-0.096-0.144-0.181-0.219-0.27c-0.056-0.066-0.104-0.138-0.165-0.198
		c-0.07-0.07-0.153-0.127-0.23-0.191c-0.079-0.065-0.153-0.136-0.238-0.193c-0.069-0.046-0.148-0.08-0.222-0.122
		c-0.106-0.059-0.21-0.122-0.322-0.168c-0.012-0.005-0.023-0.013-0.035-0.018c-0.071-0.028-0.144-0.039-0.216-0.062
		c-0.112-0.036-0.222-0.074-0.338-0.097c-0.096-0.019-0.192-0.024-0.288-0.034c-0.106-0.011-0.21-0.025-0.317-0.025
		c-0.102,0-0.202,0.014-0.303,0.024s-0.201,0.015-0.301,0.035c-0.113,0.023-0.221,0.06-0.331,0.095
		c-0.074,0.023-0.149,0.034-0.222,0.064c-0.013,0.005-0.023,0.013-0.035,0.018c-0.111,0.046-0.213,0.108-0.318,0.166
		c-0.075,0.042-0.156,0.076-0.226,0.124c-0.083,0.056-0.156,0.126-0.234,0.19c-0.078,0.064-0.163,0.123-0.234,0.194
		c-0.06,0.06-0.109,0.133-0.165,0.198c-0.075,0.089-0.155,0.174-0.219,0.27c-0.042,0.063-0.072,0.134-0.11,0.201
		c-0.064,0.113-0.13,0.224-0.179,0.344c-0.005,0.012-0.012,0.021-0.017,0.033l-11.34,28.346c-0.64,1.599,0.138,3.414,1.737,4.053
		c0.38,0.152,0.771,0.224,1.157,0.224c1.237,0,2.408-0.742,2.896-1.961l8.444-21.108l19.779,49.456
		c0.487,1.219,1.658,1.961,2.896,1.961c0.385,0,0.777-0.072,1.157-0.224c1.599-0.64,2.377-2.454,1.737-4.054L181.823,2.127z"/>
	<path fill="#FFFFFF" d="M139.861,2.127c-0.005-0.012-0.012-0.021-0.017-0.033c-0.048-0.117-0.113-0.226-0.175-0.336
		c-0.039-0.069-0.071-0.144-0.114-0.209c-0.058-0.087-0.131-0.163-0.197-0.243c-0.062-0.075-0.119-0.157-0.187-0.226
		c-0.058-0.058-0.127-0.104-0.19-0.158c-0.091-0.078-0.18-0.16-0.279-0.226c-0.058-0.039-0.125-0.067-0.186-0.102
		c-0.117-0.067-0.234-0.136-0.359-0.187c-0.011-0.005-0.02-0.012-0.031-0.016c-0.065-0.026-0.132-0.035-0.197-0.057
		c-0.118-0.039-0.235-0.079-0.358-0.103c-0.097-0.019-0.193-0.024-0.29-0.034c-0.104-0.011-0.206-0.025-0.311-0.025
		c-0.108,0-0.214,0.014-0.321,0.026c-0.094,0.01-0.188,0.014-0.283,0.033c-0.122,0.024-0.239,0.064-0.356,0.102
		c-0.066,0.022-0.134,0.031-0.2,0.057c-0.011,0.005-0.021,0.012-0.032,0.017c-0.122,0.05-0.236,0.117-0.35,0.183
		c-0.064,0.037-0.134,0.066-0.195,0.106c-0.097,0.065-0.182,0.145-0.272,0.22c-0.065,0.055-0.137,0.104-0.197,0.164
		c-0.068,0.068-0.124,0.149-0.186,0.224c-0.067,0.081-0.14,0.158-0.198,0.245c-0.043,0.065-0.075,0.139-0.113,0.208
		c-0.063,0.111-0.128,0.221-0.177,0.339c-0.005,0.011-0.012,0.021-0.017,0.032l-11.338,28.345c-0.64,1.599,0.138,3.414,1.737,4.053
		c0.38,0.152,0.771,0.224,1.157,0.224c1.237,0,2.408-0.742,2.896-1.961l8.443-21.108l19.783,49.456
		c0.488,1.219,1.658,1.961,2.896,1.961c0.385,0,0.777-0.072,1.157-0.224c1.599-0.64,2.376-2.455,1.737-4.054L139.861,2.127z"/>
	<path fill="#FFFFFF" d="M136.968,42.686h-17.009c-0.009,0-0.018,0.003-0.027,0.003c-0.123,0.001-0.243,0.021-0.364,0.037
		c-0.086,0.011-0.174,0.013-0.258,0.03c-0.057,0.012-0.11,0.036-0.166,0.051c-0.535,0.146-1.018,0.419-1.397,0.801
		c-0.02,0.02-0.035,0.046-0.055,0.067c-0.119,0.127-0.232,0.26-0.329,0.406c-0.016,0.025-0.027,0.054-0.043,0.079
		c-0.094,0.151-0.18,0.307-0.247,0.474c-0.002,0.005-0.005,0.008-0.007,0.013l-5.67,14.174c-0.64,1.599,0.138,3.414,1.737,4.054
		c0.38,0.151,0.771,0.224,1.157,0.224c1.237,0,2.408-0.742,2.896-1.961l4.886-12.214h14.896c1.722,0,3.118-1.396,3.118-3.118
		S138.69,42.686,136.968,42.686z"/>
	<path fill="#FFFFFF" d="M22.3,27.023C9.689,23.87,7.654,21.154,7.654,15.875c0-6.036,5.192-9.639,13.89-9.639
		c9.767,0,14.602,4.6,14.803,4.756c1.225,0.953,3.192,1.218,4.41,0s1.218-3.192,0-4.41C40.487,6.314,34.03,0,21.543,0
		C6.688,0,1.417,8.552,1.417,15.875c0,11.425,8.772,14.549,19.37,17.199C32.641,36.037,36.85,38.38,36.85,45.637
		c0,3.789-1.2,6.497-3.668,8.279c-2.55,1.842-6.464,2.775-11.635,2.775c-0.001,0-0.003,0-0.004,0
		c-10.91-0.001-15.75-5.676-16.006-5.933c-1.216-1.219-3.029-1.536-4.368-0.467c-1.344,1.076-1.562,3.039-0.485,4.383
		c0.27,0.337,6.767,8.253,20.859,8.255c0.002,0,0.003,0,0.004,0c6.509,0,11.652-1.331,15.287-3.956
		c4.091-2.954,6.253-7.565,6.253-13.335C43.087,33.229,33.673,29.866,22.3,27.023z"/>
	<path fill="#FFFFFF" d="M99.219,3.525c-3.437-2.291-8.265-3.358-15.194-3.358H66.6c-1.722,0-3.118,1.396-3.118,3.118v56.693
		c0,1.722,1.396,3.118,3.118,3.118s3.118-1.396,3.118-3.118V34.75h14.307c5.893,0,21.545,0,21.545-17.292
		C105.57,11.021,103.433,6.333,99.219,3.525z M84.025,28.513H69.718V6.403h14.307c11.446,0,15.309,2.79,15.309,11.055
		C99.333,25.724,95.471,28.513,84.025,28.513z"/>
	<path fill="#FFFFFF" d="M404.975,34.749c1.722,0,3.118-1.396,3.118-3.118s-1.396-3.118-3.118-3.118H374.08V6.403h30.896
		c1.722,0,3.118-1.396,3.118-3.118s-1.396-3.118-3.118-3.118h-34.014c-1.722,0-3.118,1.396-3.118,3.118v56.693
		c0,1.722,1.396,3.118,3.118,3.118h34.014c1.722,0,3.118-1.396,3.118-3.118s-1.396-3.118-3.118-3.118H374.08V34.749H404.975z"/>
	<path fill="#FFFFFF" d="M322.624,0.167h-14.592c-1.722,0-3.118,1.396-3.118,3.118v56.693c0,1.722,1.396,3.118,3.118,3.118h14.592
		c15.949,0,23.916-7.947,24.355-24.282C346.997,38.26,347,24.68,347,24.544C347.001,7.913,339.255,0.167,322.624,0.167z
		 M340.746,38.633c-0.348,12.946-5.599,18.227-18.122,18.227H311.15V6.403h11.474c13.224,0,18.141,4.917,18.141,18.142
		C340.765,26.069,340.759,38.003,340.746,38.633z"/>
</g>
</svg>
